<svg width="349" height="50" viewBox="0 0 349 50" fill="none" xmlns="http://www.w3.org/2000/svg">
<path d="M11.064 26.28H7.992V39H0.12V5.736H11.016C15.56 5.736 18.968 6.568 21.24 8.232C23.544 9.896 24.696 12.44 24.696 15.864C24.696 18.008 24.184 19.8 23.16 21.24C22.136 22.648 20.52 23.848 18.312 24.84L26.76 39H17.88L11.064 26.28ZM7.992 20.856H11.304C13.064 20.856 14.376 20.456 15.24 19.656C16.136 18.856 16.584 17.592 16.584 15.864C16.584 14.264 16.104 13.096 15.144 12.36C14.216 11.624 12.776 11.256 10.824 11.256H7.992V20.856ZM39.9379 12.696C43.8419 12.696 46.8979 13.896 49.1059 16.296C51.3139 18.664 52.4179 21.992 52.4179 26.28C52.4179 29 51.9059 31.384 50.8819 33.432C49.8899 35.448 48.4499 37.016 46.5619 38.136C44.7059 39.256 42.4979 39.816 39.9379 39.816C36.0659 39.816 33.0099 38.632 30.7699 36.264C28.5619 33.864 27.4579 30.52 27.4579 26.232C27.4579 23.512 27.9539 21.144 28.9459 19.128C29.9699 17.08 31.4099 15.496 33.2659 14.376C35.1539 13.256 37.3779 12.696 39.9379 12.696ZM39.9379 18.264C38.4019 18.264 37.2499 18.92 36.4819 20.232C35.7139 21.512 35.3299 23.512 35.3299 26.232C35.3299 29.016 35.6979 31.048 36.4339 32.328C37.2019 33.608 38.3699 34.248 39.9379 34.248C41.4739 34.248 42.6259 33.608 43.3939 32.328C44.1619 31.016 44.5459 29 44.5459 26.28C44.5459 23.496 44.1619 21.464 43.3939 20.184C42.6579 18.904 41.5059 18.264 39.9379 18.264ZM79.7771 3.384V39H73.0571L72.6731 36.024C70.8811 38.552 68.4651 39.816 65.4251 39.816C62.2571 39.816 59.8411 38.6 58.1771 36.168C56.5451 33.736 55.7291 30.408 55.7291 26.184C55.7291 23.592 56.1611 21.272 57.0251 19.224C57.8891 17.176 59.1051 15.576 60.6731 14.424C62.2731 13.272 64.0971 12.696 66.1451 12.696C68.5771 12.696 70.5931 13.496 72.1931 15.096V2.568L79.7771 3.384ZM67.7771 34.248C69.5371 34.248 71.0091 33.288 72.1931 31.368V20.376C71.5851 19.64 70.9611 19.096 70.3211 18.744C69.7131 18.392 69.0091 18.216 68.2091 18.216C66.8011 18.216 65.6811 18.872 64.8491 20.184C64.0171 21.496 63.6011 23.512 63.6011 26.232C63.6011 29.208 63.9531 31.288 64.6571 32.472C65.3931 33.656 66.4331 34.248 67.7771 34.248ZM99.5344 12.792C100.462 12.792 101.31 12.904 102.078 13.128L100.878 20.472C99.9184 20.248 99.1504 20.136 98.5744 20.136C97.0704 20.136 95.9184 20.664 95.1184 21.72C94.3504 22.744 93.7424 24.296 93.2944 26.376V39H85.7104V13.512H92.3344L92.9584 18.456C93.5344 16.696 94.3984 15.32 95.5504 14.328C96.7344 13.304 98.0624 12.792 99.5344 12.792ZM112.56 13.512V39H104.976V13.512H112.56ZM108.72 0.0719976C110.032 0.0719976 111.104 0.487998 111.936 1.32C112.8 2.12 113.232 3.144 113.232 4.392C113.232 5.64 112.8 6.68 111.936 7.512C111.104 8.312 110.032 8.712 108.72 8.712C107.408 8.712 106.336 8.312 105.504 7.512C104.672 6.68 104.256 5.64 104.256 4.392C104.256 3.144 104.672 2.12 105.504 1.32C106.336 0.487998 107.408 0.0719976 108.72 0.0719976ZM141.995 15C140.331 15.672 137.883 16.008 134.651 16.008C136.315 16.712 137.531 17.576 138.299 18.6C139.067 19.624 139.451 20.952 139.451 22.584C139.451 24.216 139.019 25.688 138.155 27C137.291 28.28 136.043 29.288 134.411 30.024C132.811 30.76 130.923 31.128 128.747 31.128C127.723 31.128 126.747 31.032 125.819 30.84C125.563 30.968 125.355 31.176 125.195 31.464C125.067 31.72 125.003 31.992 125.003 32.28C125.003 32.76 125.179 33.144 125.531 33.432C125.915 33.688 126.667 33.816 127.787 33.816H131.627C133.579 33.816 135.291 34.136 136.763 34.776C138.235 35.416 139.371 36.296 140.171 37.416C140.971 38.536 141.371 39.8 141.371 41.208C141.371 43.864 140.219 45.928 137.915 47.4C135.643 48.904 132.347 49.656 128.027 49.656C124.923 49.656 122.475 49.32 120.683 48.648C118.891 48.008 117.627 47.096 116.891 45.912C116.187 44.728 115.835 43.24 115.835 41.448H122.651C122.651 42.216 122.795 42.824 123.083 43.272C123.403 43.72 123.963 44.056 124.763 44.28C125.563 44.504 126.715 44.616 128.219 44.616C130.299 44.616 131.739 44.36 132.539 43.848C133.339 43.368 133.739 42.664 133.739 41.736C133.739 40.968 133.435 40.36 132.827 39.912C132.219 39.464 131.307 39.24 130.091 39.24H126.395C123.771 39.24 121.803 38.776 120.491 37.848C119.211 36.888 118.571 35.672 118.571 34.2C118.571 33.272 118.843 32.376 119.387 31.512C119.931 30.616 120.667 29.88 121.595 29.304C119.995 28.44 118.827 27.432 118.091 26.28C117.387 25.096 117.035 23.672 117.035 22.008C117.035 19.16 118.059 16.904 120.107 15.24C122.155 13.544 124.859 12.696 128.219 12.696C130.779 12.76 132.939 12.504 134.699 11.928C136.491 11.352 138.331 10.504 140.219 9.384L141.995 15ZM128.411 17.688C127.227 17.688 126.283 18.072 125.579 18.84C124.907 19.576 124.571 20.6 124.571 21.912C124.571 23.288 124.907 24.36 125.579 25.128C126.283 25.864 127.227 26.232 128.411 26.232C129.659 26.232 130.603 25.864 131.243 25.128C131.915 24.392 132.251 23.288 132.251 21.816C132.251 19.064 130.971 17.688 128.411 17.688ZM154.922 12.696C158.826 12.696 161.882 13.896 164.09 16.296C166.298 18.664 167.402 21.992 167.402 26.28C167.402 29 166.89 31.384 165.866 33.432C164.874 35.448 163.434 37.016 161.546 38.136C159.69 39.256 157.482 39.816 154.922 39.816C151.05 39.816 147.994 38.632 145.754 36.264C143.546 33.864 142.442 30.52 142.442 26.232C142.442 23.512 142.938 21.144 143.93 19.128C144.954 17.08 146.394 15.496 148.25 14.376C150.138 13.256 152.362 12.696 154.922 12.696ZM154.922 18.264C153.386 18.264 152.234 18.92 151.466 20.232C150.698 21.512 150.314 23.512 150.314 26.232C150.314 29.016 150.682 31.048 151.418 32.328C152.186 33.608 153.354 34.248 154.922 34.248C156.458 34.248 157.61 33.608 158.378 32.328C159.146 31.016 159.53 29 159.53 26.28C159.53 23.496 159.146 21.464 158.378 20.184C157.642 18.904 156.49 18.264 154.922 18.264ZM196.888 4.92C201.624 4.92 205.304 6.44 207.928 9.48C210.584 12.52 211.912 16.808 211.912 22.344C211.912 25.96 211.304 29.08 210.088 31.704C208.904 34.328 207.176 36.344 204.904 37.752C202.664 39.128 199.992 39.816 196.888 39.816C193.784 39.816 191.112 39.128 188.872 37.752C186.632 36.376 184.904 34.392 183.688 31.8C182.504 29.176 181.912 26.024 181.912 22.344C181.912 18.76 182.504 15.656 183.688 13.032C184.904 10.408 186.632 8.408 188.872 7.032C191.112 5.624 193.784 4.92 196.888 4.92ZM196.888 10.68C194.616 10.68 192.92 11.608 191.8 13.464C190.712 15.288 190.168 18.248 190.168 22.344C190.168 26.44 190.728 29.416 191.848 31.272C192.968 33.128 194.648 34.056 196.888 34.056C199.192 34.056 200.888 33.144 201.976 31.32C203.096 29.464 203.656 26.472 203.656 22.344C203.656 18.216 203.096 15.24 201.976 13.416C200.856 11.592 199.16 10.68 196.888 10.68ZM223.26 39.816C221.052 39.816 219.324 39.192 218.076 37.944C216.86 36.664 216.252 34.856 216.252 32.52V3.384L223.836 2.568V32.232C223.836 33.288 224.268 33.816 225.132 33.816C225.58 33.816 225.996 33.736 226.38 33.576L227.868 38.952C226.492 39.528 224.956 39.816 223.26 39.816ZM238.326 13.512V39H230.742V13.512H238.326ZM234.486 0.0719976C235.798 0.0719976 236.87 0.487998 237.702 1.32C238.566 2.12 238.998 3.144 238.998 4.392C238.998 5.64 238.566 6.68 237.702 7.512C236.87 8.312 235.798 8.712 234.486 8.712C233.174 8.712 232.102 8.312 231.27 7.512C230.438 6.68 230.022 5.64 230.022 4.392C230.022 3.144 230.438 2.12 231.27 1.32C232.102 0.487998 233.174 0.0719976 234.486 0.0719976ZM266.225 13.512L258.209 39H249.233L241.024 13.512H249.281L253.793 33.24L258.497 13.512H266.225ZM290.747 25.752C290.747 26.808 290.699 27.72 290.603 28.488H274.811C275.067 30.632 275.675 32.136 276.635 33C277.595 33.864 278.923 34.296 280.619 34.296C281.643 34.296 282.635 34.12 283.595 33.768C284.555 33.384 285.595 32.808 286.715 32.04L289.835 36.264C286.859 38.632 283.547 39.816 279.899 39.816C275.771 39.816 272.603 38.6 270.395 36.168C268.187 33.736 267.083 30.472 267.083 26.376C267.083 23.784 267.547 21.464 268.475 19.416C269.403 17.336 270.763 15.704 272.555 14.52C274.347 13.304 276.491 12.696 278.987 12.696C282.667 12.696 285.547 13.848 287.627 16.152C289.707 18.456 290.747 21.656 290.747 25.752ZM283.307 23.592C283.243 19.688 281.867 17.736 279.179 17.736C277.867 17.736 276.843 18.216 276.107 19.176C275.403 20.136 274.971 21.72 274.811 23.928H283.307V23.592ZM302.591 13.512V39H295.007V13.512H302.591ZM298.751 0.0719976C300.063 0.0719976 301.135 0.487998 301.967 1.32C302.831 2.12 303.263 3.144 303.263 4.392C303.263 5.64 302.831 6.68 301.967 7.512C301.135 8.312 300.063 8.712 298.751 8.712C297.439 8.712 296.367 8.312 295.535 7.512C294.703 6.68 294.287 5.64 294.287 4.392C294.287 3.144 294.703 2.12 295.535 1.32C296.367 0.487998 297.439 0.0719976 298.751 0.0719976ZM322.378 12.792C323.306 12.792 324.154 12.904 324.922 13.128L323.722 20.472C322.762 20.248 321.994 20.136 321.418 20.136C319.914 20.136 318.762 20.664 317.962 21.72C317.194 22.744 316.586 24.296 316.138 26.376V39H308.554V13.512H315.178L315.802 18.456C316.378 16.696 317.242 15.32 318.394 14.328C319.578 13.304 320.906 12.792 322.378 12.792ZM346.388 31.608C346.388 32.568 346.516 33.272 346.772 33.72C347.06 34.168 347.508 34.504 348.116 34.728L346.532 39.672C344.964 39.544 343.684 39.208 342.692 38.664C341.7 38.088 340.932 37.192 340.388 35.976C338.724 38.536 336.164 39.816 332.708 39.816C330.18 39.816 328.164 39.08 326.66 37.608C325.156 36.136 324.404 34.216 324.404 31.848C324.404 29.064 325.428 26.936 327.476 25.464C329.524 23.992 332.484 23.256 336.356 23.256H338.948V22.152C338.948 20.648 338.628 19.624 337.988 19.08C337.348 18.504 336.228 18.216 334.628 18.216C333.796 18.216 332.788 18.344 331.604 18.6C330.42 18.824 329.204 19.144 327.956 19.56L326.228 14.568C327.828 13.96 329.46 13.496 331.124 13.176C332.82 12.856 334.388 12.696 335.828 12.696C339.476 12.696 342.148 13.448 343.844 14.952C345.54 16.456 346.388 18.712 346.388 21.72V31.608ZM334.916 34.392C336.644 34.392 337.988 33.576 338.948 31.944V27.432H337.076C335.348 27.432 334.052 27.736 333.188 28.344C332.356 28.952 331.94 29.896 331.94 31.176C331.94 32.2 332.196 33 332.708 33.576C333.252 34.12 333.988 34.392 334.916 34.392Z" fill="#141414"/>
</svg>
