<svg width="368" height="48" viewBox="0 0 368 48" fill="none" xmlns="http://www.w3.org/2000/svg">
<path d="M0.632 4.016C1.432 4.048 2.504 4.08 3.848 4.112C5.224 4.144 6.584 4.16 7.928 4.16C9.464 4.16 10.952 4.144 12.392 4.112C13.832 4.08 14.856 4.064 15.464 4.064C18.44 4.064 20.904 4.4 22.856 5.072C24.84 5.712 26.312 6.656 27.272 7.904C28.264 9.152 28.76 10.656 28.76 12.416C28.76 13.504 28.536 14.608 28.088 15.728C27.64 16.816 26.872 17.84 25.784 18.8C24.728 19.728 23.272 20.48 21.416 21.056C19.56 21.6 17.224 21.872 14.408 21.872H9.8V20.912H13.928C15.816 20.912 17.24 20.56 18.2 19.856C19.192 19.12 19.864 18.16 20.216 16.976C20.6 15.76 20.792 14.416 20.792 12.944C20.792 10.416 20.344 8.464 19.448 7.088C18.552 5.68 17.016 4.976 14.84 4.976C13.592 4.976 12.776 5.248 12.392 5.792C12.04 6.336 11.864 7.44 11.864 9.104V32.912C11.864 34.064 11.944 34.928 12.104 35.504C12.296 36.08 12.648 36.464 13.16 36.656C13.672 36.848 14.44 36.976 15.464 37.04V38C14.6 37.936 13.512 37.904 12.2 37.904C10.888 37.872 9.56 37.856 8.216 37.856C6.68 37.856 5.224 37.872 3.848 37.904C2.504 37.904 1.432 37.936 0.632 38V37.04C1.656 36.976 2.424 36.848 2.936 36.656C3.448 36.464 3.784 36.08 3.944 35.504C4.136 34.928 4.232 34.064 4.232 32.912V9.104C4.232 7.92 4.136 7.056 3.944 6.512C3.784 5.936 3.432 5.552 2.888 5.36C2.376 5.136 1.624 5.008 0.632 4.976V4.016ZM9.704 21.056C11.08 21.088 12.264 21.152 13.256 21.248C14.28 21.344 15.176 21.44 15.944 21.536C16.712 21.6 17.4 21.648 18.008 21.68C20.92 21.936 23.064 22.56 24.44 23.552C25.848 24.544 26.76 26.032 27.176 28.016L28.28 32.96C28.568 34.24 28.872 35.136 29.192 35.648C29.512 36.16 29.976 36.416 30.584 36.416C31 36.384 31.336 36.288 31.592 36.128C31.88 35.936 32.184 35.664 32.504 35.312L33.176 35.888C32.312 36.88 31.384 37.584 30.392 38C29.4 38.448 28.2 38.672 26.792 38.672C25.064 38.672 23.64 38.304 22.52 37.568C21.4 36.832 20.664 35.472 20.312 33.488L19.448 28.688C19.224 27.344 18.952 26.176 18.632 25.184C18.312 24.16 17.864 23.36 17.288 22.784C16.744 22.176 15.976 21.872 14.984 21.872H9.8L9.704 21.056ZM45.7704 12.512C48.1064 12.512 50.1544 12.944 51.9144 13.808C53.6744 14.672 55.0504 16.064 56.0424 17.984C57.0344 19.904 57.5304 22.448 57.5304 25.616C57.5304 28.784 57.0344 31.328 56.0424 33.248C55.0504 35.136 53.6744 36.512 51.9144 37.376C50.1544 38.24 48.1064 38.672 45.7704 38.672C43.4984 38.672 41.4664 38.24 39.6744 37.376C37.9144 36.512 36.5224 35.136 35.4984 33.248C34.5064 31.328 34.0104 28.784 34.0104 25.616C34.0104 22.448 34.5064 19.904 35.4984 17.984C36.5224 16.064 37.9144 14.672 39.6744 13.808C41.4664 12.944 43.4984 12.512 45.7704 12.512ZM45.7704 13.472C44.4904 13.472 43.4184 14.432 42.5544 16.352C41.6904 18.24 41.2584 21.328 41.2584 25.616C41.2584 29.904 41.6904 32.992 42.5544 34.88C43.4184 36.768 44.4904 37.712 45.7704 37.712C47.0824 37.712 48.1544 36.768 48.9864 34.88C49.8504 32.992 50.2824 29.904 50.2824 25.616C50.2824 21.328 49.8504 18.24 48.9864 16.352C48.1544 14.432 47.0824 13.472 45.7704 13.472ZM84.143 0.415998V32.72C84.143 34.16 84.367 35.232 84.815 35.936C85.263 36.608 86.063 36.944 87.215 36.944V37.952C86.223 37.856 85.231 37.808 84.239 37.808C82.895 37.808 81.631 37.856 80.447 37.952C79.295 38.048 78.223 38.224 77.231 38.48V6.176C77.231 4.736 77.007 3.68 76.559 3.008C76.143 2.304 75.343 1.952 74.159 1.952V0.943999C75.183 1.04 76.175 1.088 77.135 1.088C78.447 1.088 79.695 1.04 80.879 0.943999C82.063 0.815999 83.151 0.639998 84.143 0.415998ZM71.903 12.512C73.311 12.512 74.543 12.752 75.599 13.232C76.687 13.68 77.535 14.448 78.143 15.536L77.567 16.064C77.151 15.296 76.591 14.752 75.887 14.432C75.215 14.08 74.495 13.904 73.727 13.904C72.095 13.904 70.799 14.864 69.839 16.784C68.879 18.672 68.415 21.6 68.447 25.568C68.447 28.288 68.623 30.464 68.975 32.096C69.359 33.696 69.887 34.848 70.559 35.552C71.263 36.256 72.063 36.608 72.959 36.608C74.047 36.608 75.023 36.176 75.887 35.312C76.751 34.448 77.215 33.28 77.279 31.808L77.519 33.488C77.039 35.184 76.255 36.48 75.167 37.376C74.111 38.24 72.719 38.672 70.991 38.672C69.103 38.672 67.407 38.208 65.903 37.28C64.431 36.352 63.279 34.928 62.447 33.008C61.615 31.056 61.199 28.544 61.199 25.472C61.199 22.56 61.663 20.16 62.591 18.272C63.519 16.352 64.783 14.912 66.383 13.952C68.015 12.992 69.855 12.512 71.903 12.512ZM105.727 12.512C106.751 12.512 107.583 12.736 108.223 13.184C108.863 13.6 109.327 14.144 109.615 14.816C109.935 15.488 110.095 16.192 110.095 16.928C110.095 18.112 109.743 19.088 109.039 19.856C108.367 20.592 107.471 20.96 106.351 20.96C105.231 20.96 104.351 20.688 103.711 20.144C103.103 19.568 102.799 18.816 102.799 17.888C102.799 16.992 102.991 16.256 103.375 15.68C103.791 15.072 104.303 14.56 104.911 14.144C104.463 14.016 104.015 14.032 103.567 14.192C102.959 14.288 102.383 14.544 101.839 14.96C101.295 15.344 100.831 15.84 100.447 16.448C100.063 17.024 99.7585 17.664 99.5345 18.368C99.3105 19.04 99.1985 19.696 99.1985 20.336V33.056C99.1985 34.592 99.5665 35.632 100.303 36.176C101.071 36.72 102.207 36.992 103.711 36.992V38C102.975 37.968 101.903 37.936 100.495 37.904C99.0865 37.84 97.6145 37.808 96.0785 37.808C94.7985 37.808 93.5025 37.84 92.1905 37.904C90.8785 37.936 89.8865 37.968 89.2145 38V36.992C90.3345 36.992 91.1185 36.752 91.5665 36.272C92.0465 35.792 92.2865 34.88 92.2865 33.536V18.416C92.2865 16.976 92.0625 15.92 91.6145 15.248C91.1985 14.544 90.3985 14.192 89.2145 14.192V13.184C90.2385 13.28 91.2305 13.328 92.1905 13.328C93.5345 13.328 94.7825 13.28 95.9345 13.184C97.1185 13.056 98.2065 12.88 99.1985 12.656V17.12C99.5825 16.256 100.095 15.472 100.734 14.768C101.375 14.064 102.111 13.52 102.943 13.136C103.775 12.72 104.703 12.512 105.727 12.512ZM117.861 0.799998C119.205 0.799998 120.261 1.136 121.029 1.808C121.829 2.448 122.229 3.344 122.229 4.496C122.229 5.648 121.829 6.56 121.029 7.232C120.261 7.872 119.205 8.192 117.861 8.192C116.517 8.192 115.445 7.872 114.645 7.232C113.877 6.56 113.493 5.648 113.493 4.496C113.493 3.344 113.877 2.448 114.645 1.808C115.445 1.136 116.517 0.799998 117.861 0.799998ZM121.605 12.656V33.536C121.605 34.88 121.829 35.792 122.277 36.272C122.757 36.752 123.557 36.992 124.677 36.992V38C124.101 37.968 123.205 37.936 121.989 37.904C120.773 37.84 119.541 37.808 118.293 37.808C117.045 37.808 115.781 37.84 114.501 37.904C113.221 37.936 112.261 37.968 111.621 38V36.992C112.741 36.992 113.525 36.752 113.973 36.272C114.453 35.792 114.693 34.88 114.693 33.536V18.416C114.693 16.976 114.469 15.92 114.021 15.248C113.605 14.544 112.805 14.192 111.621 14.192V13.184C112.645 13.28 113.637 13.328 114.597 13.328C115.941 13.328 117.189 13.28 118.341 13.184C119.525 13.056 120.613 12.88 121.605 12.656ZM136.073 47.024C134.089 47.024 132.313 46.848 130.745 46.496C129.209 46.176 127.993 45.664 127.097 44.96C126.233 44.288 125.801 43.456 125.801 42.464C125.801 41.472 126.249 40.576 127.145 39.776C128.041 39.008 129.369 38.4 131.129 37.952L131.561 38.72C130.953 39.2 130.505 39.712 130.217 40.256C129.961 40.832 129.833 41.424 129.833 42.032C129.833 43.376 130.441 44.4 131.657 45.104C132.905 45.84 134.585 46.208 136.697 46.208C138.137 46.208 139.417 46.016 140.537 45.632C141.689 45.248 142.585 44.672 143.225 43.904C143.897 43.136 144.233 42.192 144.233 41.072C144.233 40.112 143.881 39.296 143.177 38.624C142.473 37.984 141.065 37.664 138.953 37.664H135.977C134.665 37.664 133.513 37.52 132.521 37.232C131.561 36.944 130.809 36.496 130.265 35.888C129.721 35.248 129.449 34.448 129.449 33.488C129.449 32.144 129.977 30.96 131.033 29.936C132.089 28.912 133.657 27.952 135.737 27.056L136.217 27.44C135.609 27.824 135.033 28.24 134.489 28.688C133.977 29.104 133.721 29.648 133.721 30.32C133.721 31.344 134.361 31.856 135.641 31.856H140.873C142.633 31.856 144.201 32.064 145.577 32.48C146.985 32.896 148.089 33.584 148.889 34.544C149.721 35.472 150.137 36.688 150.137 38.192C150.137 39.76 149.625 41.216 148.601 42.56C147.609 43.904 146.073 44.976 143.993 45.776C141.913 46.608 139.273 47.024 136.073 47.024ZM136.553 27.776C134.729 27.776 133.097 27.504 131.657 26.96C130.217 26.416 129.081 25.584 128.249 24.464C127.417 23.344 127.001 21.904 127.001 20.144C127.001 18.384 127.417 16.944 128.249 15.824C129.081 14.672 130.217 13.84 131.657 13.328C133.097 12.784 134.729 12.512 136.553 12.512C138.377 12.512 140.009 12.784 141.449 13.328C142.889 13.84 144.025 14.672 144.857 15.824C145.689 16.944 146.105 18.384 146.105 20.144C146.105 21.904 145.689 23.344 144.857 24.464C144.025 25.584 142.889 26.416 141.449 26.96C140.009 27.504 138.377 27.776 136.553 27.776ZM136.553 26.912C137.417 26.912 138.089 26.432 138.569 25.472C139.049 24.48 139.289 22.704 139.289 20.144C139.289 17.584 139.049 15.824 138.569 14.864C138.089 13.872 137.417 13.376 136.553 13.376C135.721 13.376 135.049 13.872 134.537 14.864C134.057 15.824 133.817 17.584 133.817 20.144C133.817 22.704 134.057 24.48 134.537 25.472C135.049 26.432 135.721 26.912 136.553 26.912ZM144.041 16.64L143.081 16.304C143.561 15.056 144.329 14.016 145.385 13.184C146.473 12.352 147.641 11.936 148.889 11.936C149.913 11.936 150.681 12.224 151.193 12.8C151.737 13.344 152.009 14.064 152.009 14.96C152.009 15.92 151.753 16.64 151.241 17.12C150.729 17.568 150.153 17.792 149.513 17.792C148.969 17.792 148.457 17.6 147.977 17.216C147.529 16.832 147.273 16.256 147.209 15.488C147.145 14.688 147.417 13.664 148.025 12.416L148.361 12.704C147.145 13.152 146.233 13.68 145.625 14.288C145.017 14.864 144.489 15.648 144.041 16.64ZM164.927 12.512C167.263 12.512 169.311 12.944 171.071 13.808C172.831 14.672 174.207 16.064 175.199 17.984C176.191 19.904 176.687 22.448 176.687 25.616C176.687 28.784 176.191 31.328 175.199 33.248C174.207 35.136 172.831 36.512 171.071 37.376C169.311 38.24 167.263 38.672 164.927 38.672C162.655 38.672 160.623 38.24 158.831 37.376C157.071 36.512 155.679 35.136 154.655 33.248C153.663 31.328 153.167 28.784 153.167 25.616C153.167 22.448 153.663 19.904 154.655 17.984C155.679 16.064 157.071 14.672 158.831 13.808C160.623 12.944 162.655 12.512 164.927 12.512ZM164.927 13.472C163.647 13.472 162.575 14.432 161.711 16.352C160.847 18.24 160.415 21.328 160.415 25.616C160.415 29.904 160.847 32.992 161.711 34.88C162.575 36.768 163.647 37.712 164.927 37.712C166.239 37.712 167.311 36.768 168.143 34.88C169.007 32.992 169.439 29.904 169.439 25.616C169.439 21.328 169.007 18.24 168.143 16.352C167.311 14.432 166.239 13.472 164.927 13.472ZM208.79 3.344C212.182 3.344 215.142 4.032 217.67 5.408C220.23 6.784 222.214 8.768 223.622 11.36C225.03 13.92 225.734 17.04 225.734 20.72C225.734 24.304 225.014 27.44 223.574 30.128C222.134 32.816 220.118 34.912 217.526 36.416C214.966 37.92 212.038 38.672 208.742 38.672C205.35 38.672 202.374 37.984 199.814 36.608C197.286 35.232 195.318 33.248 193.91 30.656C192.502 28.064 191.798 24.944 191.798 21.296C191.798 17.712 192.518 14.576 193.958 11.888C195.43 9.2 197.43 7.104 199.958 5.6C202.518 4.096 205.462 3.344 208.79 3.344ZM208.598 4.208C206.806 4.208 205.238 4.928 203.894 6.368C202.582 7.808 201.558 9.792 200.822 12.32C200.118 14.848 199.766 17.776 199.766 21.104C199.766 24.496 200.166 27.456 200.966 29.984C201.798 32.48 202.902 34.416 204.278 35.792C205.686 37.136 207.238 37.808 208.934 37.808C210.726 37.808 212.278 37.088 213.59 35.648C214.934 34.208 215.958 32.224 216.662 29.696C217.398 27.136 217.766 24.208 217.766 20.912C217.766 17.488 217.35 14.528 216.518 12.032C215.718 9.536 214.614 7.616 213.206 6.272C211.83 4.896 210.294 4.208 208.598 4.208ZM238.225 0.415998V33.536C238.225 34.88 238.449 35.792 238.897 36.272C239.377 36.752 240.177 36.992 241.297 36.992V38C240.689 37.968 239.777 37.936 238.561 37.904C237.345 37.84 236.113 37.808 234.865 37.808C233.617 37.808 232.353 37.84 231.073 37.904C229.825 37.936 228.881 37.968 228.241 38V36.992C229.361 36.992 230.145 36.752 230.593 36.272C231.073 35.792 231.313 34.88 231.313 33.536V6.176C231.313 4.736 231.089 3.68 230.641 3.008C230.225 2.304 229.425 1.952 228.241 1.952V0.943999C229.265 1.04 230.257 1.088 231.217 1.088C232.529 1.088 233.777 1.04 234.961 0.943999C236.145 0.815999 237.233 0.639998 238.225 0.415998ZM249.58 0.799998C250.924 0.799998 251.98 1.136 252.748 1.808C253.548 2.448 253.948 3.344 253.948 4.496C253.948 5.648 253.548 6.56 252.748 7.232C251.98 7.872 250.924 8.192 249.58 8.192C248.236 8.192 247.164 7.872 246.364 7.232C245.596 6.56 245.212 5.648 245.212 4.496C245.212 3.344 245.596 2.448 246.364 1.808C247.164 1.136 248.236 0.799998 249.58 0.799998ZM253.324 12.656V33.536C253.324 34.88 253.548 35.792 253.996 36.272C254.476 36.752 255.276 36.992 256.396 36.992V38C255.82 37.968 254.924 37.936 253.708 37.904C252.492 37.84 251.26 37.808 250.012 37.808C248.764 37.808 247.5 37.84 246.22 37.904C244.94 37.936 243.98 37.968 243.34 38V36.992C244.46 36.992 245.244 36.752 245.692 36.272C246.172 35.792 246.412 34.88 246.412 33.536V18.416C246.412 16.976 246.188 15.92 245.74 15.248C245.324 14.544 244.524 14.192 243.34 14.192V13.184C244.364 13.28 245.356 13.328 246.316 13.328C247.66 13.328 248.908 13.28 250.06 13.184C251.244 13.056 252.332 12.88 253.324 12.656ZM281.477 13.184V14.144C280.869 14.304 280.293 14.688 279.749 15.296C279.205 15.872 278.677 16.864 278.165 18.272L271.157 38.096C270.645 38.064 270.117 38.048 269.573 38.048C269.061 38.048 268.549 38.064 268.037 38.096L259.493 16.88C258.981 15.632 258.469 14.88 257.957 14.624C257.477 14.336 257.061 14.192 256.709 14.192V13.184C257.733 13.248 258.789 13.312 259.877 13.376C260.997 13.408 262.213 13.424 263.525 13.424C264.517 13.424 265.557 13.408 266.645 13.376C267.765 13.312 268.805 13.248 269.765 13.184V14.192C269.093 14.192 268.485 14.224 267.941 14.288C267.429 14.352 267.077 14.56 266.885 14.912C266.693 15.264 266.725 15.888 266.981 16.784L272.597 31.664L272.117 32.336L275.909 21.824C276.517 20.096 276.773 18.688 276.677 17.6C276.581 16.48 276.229 15.648 275.621 15.104C275.013 14.528 274.197 14.208 273.173 14.144V13.184C273.653 13.216 274.165 13.248 274.709 13.28C275.285 13.28 275.829 13.296 276.341 13.328C276.885 13.328 277.365 13.328 277.781 13.328C278.421 13.328 279.093 13.312 279.797 13.28C280.501 13.248 281.061 13.216 281.477 13.184ZM294.349 12.512C297.165 12.512 299.373 13.344 300.973 15.008C302.573 16.672 303.373 19.392 303.373 23.168H287.581L287.485 22.256H297.325C297.357 20.688 297.261 19.248 297.037 17.936C296.813 16.592 296.461 15.52 295.981 14.72C295.501 13.92 294.861 13.52 294.061 13.52C292.941 13.52 291.981 14.224 291.181 15.632C290.413 17.04 289.949 19.376 289.789 22.64L289.933 22.928C289.901 23.312 289.869 23.712 289.837 24.128C289.837 24.544 289.837 24.976 289.837 25.424C289.837 27.632 290.141 29.424 290.749 30.8C291.389 32.176 292.189 33.184 293.148 33.824C294.109 34.432 295.085 34.736 296.077 34.736C296.749 34.736 297.437 34.64 298.141 34.448C298.877 34.224 299.613 33.84 300.349 33.296C301.085 32.72 301.773 31.92 302.413 30.896L303.277 31.184C302.893 32.4 302.285 33.584 301.453 34.736C300.621 35.888 299.565 36.832 298.285 37.568C297.005 38.304 295.469 38.672 293.677 38.672C291.501 38.672 289.581 38.208 287.917 37.28C286.253 36.352 284.941 34.944 283.98 33.056C283.053 31.168 282.589 28.768 282.589 25.856C282.589 22.88 283.085 20.4 284.077 18.416C285.101 16.432 286.493 14.96 288.253 14C290.045 13.008 292.077 12.512 294.349 12.512ZM312.392 0.799998C313.736 0.799998 314.792 1.136 315.56 1.808C316.36 2.448 316.76 3.344 316.76 4.496C316.76 5.648 316.36 6.56 315.56 7.232C314.792 7.872 313.736 8.192 312.392 8.192C311.048 8.192 309.976 7.872 309.176 7.232C308.408 6.56 308.024 5.648 308.024 4.496C308.024 3.344 308.408 2.448 309.176 1.808C309.976 1.136 311.048 0.799998 312.392 0.799998ZM316.136 12.656V33.536C316.136 34.88 316.36 35.792 316.808 36.272C317.288 36.752 318.088 36.992 319.208 36.992V38C318.632 37.968 317.736 37.936 316.52 37.904C315.304 37.84 314.072 37.808 312.824 37.808C311.576 37.808 310.312 37.84 309.032 37.904C307.752 37.936 306.792 37.968 306.152 38V36.992C307.272 36.992 308.056 36.752 308.504 36.272C308.984 35.792 309.224 34.88 309.224 33.536V18.416C309.224 16.976 309 15.92 308.552 15.248C308.136 14.544 307.336 14.192 306.152 14.192V13.184C307.176 13.28 308.168 13.328 309.128 13.328C310.472 13.328 311.72 13.28 312.872 13.184C314.056 13.056 315.144 12.88 316.136 12.656ZM337.805 12.512C338.829 12.512 339.661 12.736 340.301 13.184C340.941 13.6 341.405 14.144 341.693 14.816C342.013 15.488 342.173 16.192 342.173 16.928C342.173 18.112 341.821 19.088 341.117 19.856C340.445 20.592 339.549 20.96 338.429 20.96C337.309 20.96 336.429 20.688 335.789 20.144C335.181 19.568 334.877 18.816 334.877 17.888C334.877 16.992 335.069 16.256 335.453 15.68C335.869 15.072 336.381 14.56 336.989 14.144C336.541 14.016 336.093 14.032 335.645 14.192C335.037 14.288 334.461 14.544 333.917 14.96C333.373 15.344 332.909 15.84 332.525 16.448C332.141 17.024 331.837 17.664 331.613 18.368C331.389 19.04 331.277 19.696 331.277 20.336V33.056C331.277 34.592 331.645 35.632 332.381 36.176C333.149 36.72 334.285 36.992 335.789 36.992V38C335.053 37.968 333.981 37.936 332.573 37.904C331.165 37.84 329.693 37.808 328.157 37.808C326.877 37.808 325.581 37.84 324.269 37.904C322.957 37.936 321.965 37.968 321.293 38V36.992C322.413 36.992 323.197 36.752 323.645 36.272C324.125 35.792 324.365 34.88 324.365 33.536V18.416C324.365 16.976 324.141 15.92 323.693 15.248C323.277 14.544 322.477 14.192 321.293 14.192V13.184C322.317 13.28 323.309 13.328 324.269 13.328C325.613 13.328 326.861 13.28 328.013 13.184C329.197 13.056 330.285 12.88 331.277 12.656V17.12C331.661 16.256 332.173 15.472 332.813 14.768C333.453 14.064 334.189 13.52 335.021 13.136C335.853 12.72 336.781 12.512 337.805 12.512ZM350.323 38.336C348.883 38.336 347.683 38.064 346.723 37.52C345.763 36.976 345.059 36.256 344.611 35.36C344.163 34.432 343.939 33.424 343.939 32.336C343.939 30.96 344.243 29.84 344.851 28.976C345.491 28.112 346.307 27.408 347.299 26.864C348.291 26.32 349.331 25.872 350.419 25.52C351.539 25.168 352.595 24.832 353.587 24.512C354.611 24.16 355.427 23.76 356.035 23.312C356.675 22.832 356.995 22.224 356.995 21.488V17.744C356.995 16.912 356.851 16.176 356.563 15.536C356.307 14.864 355.891 14.352 355.315 14C354.771 13.648 354.051 13.472 353.155 13.472C352.515 13.472 351.875 13.568 351.235 13.76C350.595 13.92 350.067 14.208 349.651 14.624C350.547 14.944 351.235 15.44 351.715 16.112C352.227 16.752 352.483 17.488 352.483 18.32C352.483 19.408 352.099 20.272 351.331 20.912C350.595 21.552 349.715 21.872 348.691 21.872C347.539 21.872 346.659 21.52 346.051 20.816C345.475 20.08 345.187 19.2 345.187 18.176C345.187 17.248 345.411 16.48 345.859 15.872C346.339 15.264 346.995 14.688 347.827 14.144C348.723 13.632 349.795 13.232 351.043 12.944C352.323 12.656 353.699 12.512 355.171 12.512C356.643 12.512 357.971 12.672 359.155 12.992C360.339 13.28 361.331 13.824 362.131 14.624C362.867 15.36 363.347 16.272 363.571 17.36C363.795 18.416 363.907 19.76 363.907 21.392V34.448C363.907 35.248 363.987 35.808 364.147 36.128C364.307 36.416 364.579 36.56 364.963 36.56C365.251 36.56 365.523 36.48 365.779 36.32C366.067 36.16 366.371 35.968 366.691 35.744L367.171 36.56C366.499 37.136 365.715 37.584 364.819 37.904C363.955 38.192 362.979 38.336 361.891 38.336C360.707 38.336 359.763 38.176 359.059 37.856C358.355 37.504 357.843 37.04 357.523 36.464C357.235 35.888 357.091 35.216 357.091 34.448C356.323 35.664 355.395 36.624 354.307 37.328C353.219 38 351.891 38.336 350.323 38.336ZM353.731 35.264C354.371 35.264 354.947 35.12 355.459 34.832C356.003 34.512 356.515 34 356.995 33.296V23.456C356.707 23.936 356.307 24.368 355.795 24.752C355.283 25.136 354.739 25.536 354.163 25.952C353.587 26.336 353.027 26.768 352.483 27.248C351.971 27.728 351.555 28.32 351.235 29.024C350.915 29.728 350.755 30.576 350.755 31.568C350.755 32.816 351.027 33.744 351.571 34.352C352.115 34.96 352.835 35.264 353.731 35.264Z" fill="#141414"/>
</svg>
